<?xml version="1.0" encoding="UTF-8"?>
<svg width="39px" height="39px" viewBox="0 0 39 39" version="1.1" xmlns="http://www.w3.org/2000/svg" xmlns:xlink="http://www.w3.org/1999/xlink">
    <title>Artboard</title>
    <defs>
        <path d="M38.2928932,3.22075036 L35.7792496,0.707106781 C35.3887253,0.316582489 34.7555604,0.316582489 34.3650361,0.707106781 L19.5,15.5721429 L19.5,15.5721429 L4.63496392,0.707106781 C4.24443963,0.316582489 3.61127465,0.316582489 3.22075036,0.707106781 L0.707106781,3.22075036 C0.316582489,3.61127465 0.316582489,4.24443963 0.707106781,4.63496392 L15.5721429,19.5 L15.5721429,19.5 L0.707106781,34.3650361 C0.316582489,34.7555604 0.316582489,35.3887253 0.707106781,35.7792496 L3.22075036,38.2928932 C3.61127465,38.6834175 4.24443963,38.6834175 4.63496392,38.2928932 L19.5,23.4278571 L19.5,23.4278571 L34.3650361,38.2928932 C34.7555604,38.6834175 35.3887253,38.6834175 35.7792496,38.2928932 L38.2928932,35.7792496 C38.6834175,35.3887253 38.6834175,34.7555604 38.2928932,34.3650361 L23.4278571,19.5 L23.4278571,19.5 L38.2928932,4.63496392 C38.6834175,4.24443963 38.6834175,3.61127465 38.2928932,3.22075036 Z" id="path-1"></path>
    </defs>
    <g id="Artboard" stroke="none" stroke-width="1" fill="none" fill-rule="evenodd">
        <mask id="mask-2" fill="white">
            <use xlink:href="#path-1"></use>
        </mask>
        <use id="Mask" fill="#676767" xlink:href="#path-1"></use>
    </g>
</svg>